<svg width="20" height="20" viewBox="0 0 20 20" fill="none" xmlns="http://www.w3.org/2000/svg">
<path d="M18.5295 15.2207C19.4935 13.6502 20.0025 11.8429 20 10.0002V9.99983C20.0025 8.15705 19.4935 6.34975 18.5295 4.77922L18.524 4.77065C17.6296 3.31298 16.3764 2.10901 14.8841 1.27379C13.3918 0.438574 11.7102 6.98829e-06 10 0C8.28987 -6.98813e-06 6.60829 0.438546 5.11595 1.27375C3.62361 2.10896 2.37039 3.31292 1.47604 4.77058L1.47048 4.77926C0.508875 6.35087 7.13761e-06 8.15752 0 9.99997C-7.13746e-06 11.8424 0.508847 13.6491 1.47044 15.2207L1.47609 15.2295C2.37045 16.6871 3.62367 17.8911 5.11599 18.7263C6.60832 19.5615 8.28989 20 10 20C11.7102 20 13.3917 19.5614 14.8841 18.7262C16.3764 17.891 17.6296 16.6871 18.5239 15.2294L18.5295 15.2207ZM11.2782 18.2861C11.0877 18.47 10.8683 18.6215 10.6289 18.7346C10.4324 18.828 10.2176 18.8764 9.99999 18.8764C9.78242 18.8764 9.56758 18.828 9.37106 18.7346C8.91544 18.5019 8.52543 18.1586 8.23666 17.7363C7.64692 16.8841 7.20987 15.9359 6.94506 14.9339C7.96234 14.8713 8.98066 14.8394 10 14.8383C11.0189 14.8383 12.0373 14.8701 13.0551 14.9339C12.9085 15.4491 12.7254 15.9531 12.5072 16.4423C12.2199 17.1302 11.8026 17.7562 11.2782 18.2861ZM1.14315 10.5618H5.17663C5.20289 11.6873 5.32489 12.8085 5.54129 13.9133C4.43869 14.0103 3.33891 14.1436 2.24195 14.3131C1.59959 13.1606 1.22409 11.8787 1.14315 10.5618ZM2.24194 5.68692C3.33847 5.85684 4.43864 5.99013 5.54245 6.08679C5.32561 7.19151 5.20335 8.31271 5.17699 9.43821H1.14315C1.22409 8.12131 1.59958 6.83937 2.24194 5.68692ZM8.72176 1.71385C8.91231 1.52999 9.13164 1.3785 9.37106 1.2654C9.56758 1.17203 9.78242 1.12358 9.99999 1.12358C10.2176 1.12358 10.4324 1.17203 10.6289 1.2654C11.0845 1.49813 11.4746 1.84135 11.7633 2.26368C12.3531 3.11587 12.7901 4.06413 13.0549 5.06607C12.0376 5.12867 11.0193 5.16056 10 5.16174C8.98108 5.16173 7.96271 5.12983 6.94488 5.06606C7.09146 4.5509 7.27455 4.04684 7.49276 3.55771C7.78008 2.8698 8.19737 2.24375 8.72176 1.71385ZM18.8569 9.43821H14.8234C14.7971 8.31271 14.6751 7.1915 14.4587 6.08669C15.5613 5.98966 16.6611 5.85641 17.7581 5.68691C18.4004 6.83937 18.7759 8.12131 18.8569 9.43821ZM6.67136 13.826C6.45163 12.751 6.32753 11.6587 6.30051 10.5618H13.6996C13.6728 11.6587 13.549 12.751 13.3294 13.826C12.2208 13.7532 11.111 13.7161 10 13.7147C8.88978 13.7147 7.78023 13.7518 6.67136 13.826ZM13.3286 6.17404C13.5483 7.24901 13.6724 8.34134 13.6995 9.43821H6.30039C6.32716 8.34134 6.45103 7.249 6.67056 6.17399C7.77915 6.24672 8.88897 6.28384 10 6.28532C11.1102 6.28532 12.2198 6.24822 13.3286 6.17404ZM14.823 10.5618H18.8569C18.7759 11.8787 18.4004 13.1606 17.758 14.3131C16.6615 14.1431 15.5613 14.0099 14.4576 13.9132C14.6744 12.8085 14.7966 11.6873 14.823 10.5618ZM17.0844 4.65276C16.1256 4.79108 15.164 4.9006 14.1996 4.9813C14.0262 4.33593 13.8027 3.7051 13.5309 3.0946C13.2828 2.53279 12.9707 2.00153 12.6006 1.51139C14.3889 2.05982 15.9582 3.15928 17.0844 4.65276ZM3.7234 3.72341C4.74923 2.69661 6.01127 1.93712 7.39889 1.51152C7.37783 1.53879 7.35618 1.56485 7.33542 1.59267C6.62219 2.61941 6.10267 3.76789 5.80247 4.98147C4.83795 4.89978 3.87567 4.79021 2.91563 4.65276C3.16323 4.3248 3.43313 4.01428 3.7234 3.72341ZM2.91563 15.3472C3.87435 15.2089 4.83594 15.0994 5.80041 15.0187C5.97375 15.6641 6.19731 16.2949 6.46905 16.9054C6.71715 17.4672 7.02932 17.9985 7.39935 18.4886C5.61107 17.9402 4.0418 16.8407 2.91563 15.3472ZM16.2766 16.2766C15.2508 17.3034 13.9887 18.0629 12.6011 18.4885C12.6222 18.4612 12.6438 18.4352 12.6646 18.4073C13.3778 17.3806 13.8973 16.2321 14.1975 15.0185C15.162 15.1002 16.1243 15.2098 17.0844 15.3472C16.8368 15.6752 16.5669 15.9857 16.2766 16.2766Z" fill="black"/>
</svg>
